<svg version="1.1" id="Layer_1" xmlns="http://www.w3.org/2000/svg" xmlns:xlink="http://www.w3.org/1999/xlink" x="0px" y="0px"
	 width="100%" viewBox="0 0 600 420" enable-background="new 0 0 600 420" xml:space="preserve">
<path fill="#000000" opacity="1.000000" stroke="none" 
	d="
M348.000000,421.000000 
	C232.028290,421.000000 116.556572,421.000000 1.042432,421.000000 
	C1.042432,281.062592 1.042432,141.125153 1.042432,1.093864 
	C200.888412,1.093864 400.776886,1.093864 600.832642,1.093864 
	C600.832642,140.999847 600.832642,280.999908 600.832642,421.000000 
	C516.791809,421.000000 432.645905,421.000000 348.000000,421.000000 
M221.690094,193.215363 
	C221.690094,193.215363 221.305115,193.282745 220.587662,193.230560 
	C218.518890,194.270203 216.450119,195.309845 214.841583,196.118195 
	C216.459961,212.188324 223.962936,224.876663 237.207382,233.472412 
	C250.582855,242.153198 265.194397,244.703674 281.516266,238.915939 
	C282.082916,236.581696 282.649567,234.247467 283.957092,231.905014 
	C283.658752,229.392822 283.729065,226.768036 283.001678,224.386917 
	C278.623383,210.054947 268.729340,200.849442 254.922852,194.384094 
	C244.126633,189.059113 233.153778,188.029327 221.975037,193.100037 
	C221.975037,193.100037 222.049164,193.061020 221.690094,193.215363 
M304.015320,135.928482 
	C304.080322,137.282059 304.145355,138.635635 304.076355,140.881058 
	C304.483582,146.688293 304.890808,152.495529 305.320221,158.619156 
	C320.164276,147.468048 320.165588,122.527191 304.373444,111.044350 
	C303.524017,110.426735 301.085724,110.615692 300.400452,111.360970 
	C292.175659,120.305939 287.912262,130.639267 291.020142,142.889877 
	C292.568085,148.991684 294.705872,155.019226 301.568604,158.947830 
	C301.724152,156.532257 301.775024,154.784729 301.959473,153.051407 
	C302.595825,147.071136 303.278778,141.095810 304.015320,135.928482 
M372.837921,310.788055 
	C368.238770,309.271515 363.727661,307.343964 359.019684,306.335571 
	C352.115204,304.856659 344.929016,304.568634 338.127350,302.771851 
	C332.272247,301.225159 326.770233,298.231384 323.757904,292.395844 
	C318.447174,282.107941 315.212708,271.194305 314.000854,259.657257 
	C313.808929,257.830536 312.756592,256.094177 312.102081,254.316071 
	C310.711639,255.048874 309.254425,255.680420 307.948303,256.541199 
	C306.456482,257.524384 305.005402,258.610870 303.698730,259.826630 
	C295.826263,267.151398 290.526337,276.289062 286.044281,285.872437 
	C281.227509,296.171539 273.873047,302.442169 262.314484,304.238586 
	C252.200363,305.810455 242.264282,308.527832 231.416260,311.071930 
	C230.971832,311.386627 230.527390,311.701355 230.082962,312.016052 
	C231.211258,312.344482 232.339249,312.958923 233.467896,312.960144 
	C280.050873,313.010620 326.633911,313.009735 373.216919,312.982239 
	C374.151489,312.981689 375.085785,312.590851 376.020203,312.382080 
	C375.967682,312.058563 375.915161,311.735016 375.862640,311.411499 
	C374.817841,311.475861 373.773071,311.540192 372.837921,310.788055 
M333.286652,207.245972 
	C338.112701,202.448456 343.322784,197.967331 347.628510,192.741135 
	C350.454041,189.311554 353.163208,185.233932 352.813965,179.177826 
	C350.404877,180.533371 348.747009,181.410797 347.143341,182.378128 
	C340.187164,186.574005 333.658783,191.809662 326.228027,194.829758 
	C297.152924,206.646683 288.054596,233.157028 290.099518,259.941101 
	C290.170868,260.876068 290.947906,261.757172 291.396057,262.663361 
	C291.991577,263.040100 292.587097,263.416870 293.182648,263.793610 
	C296.020538,260.217133 298.164368,255.475540 301.831451,253.290848 
	C311.397247,247.591980 321.503448,242.738297 331.631897,238.062561 
	C342.359497,233.110214 353.166870,228.157806 361.087219,219.213654 
	C367.727295,211.715271 373.699890,203.526215 379.185272,195.131485 
	C385.314209,185.751953 388.344421,175.227631 386.908142,163.843796 
	C386.646332,161.768692 385.549896,159.798904 384.754089,157.540268 
	C383.570007,158.247070 382.995026,158.390335 382.782043,158.748734 
	C380.961426,161.812241 379.189545,164.905228 377.434662,168.007248 
	C367.566742,185.450104 354.550110,199.613815 335.195648,208.001129 
	C334.481110,207.959732 333.766541,207.918335 333.286652,207.245972 
M335.561188,178.996552 
	C345.287018,178.467834 353.641022,174.327179 360.457367,167.843887 
	C367.923462,160.742554 370.721313,151.095398 372.030548,141.075272 
	C372.656311,136.286057 370.650879,134.259628 365.791290,133.914230 
	C359.929840,133.497635 354.611023,134.920486 349.092804,136.897964 
	C335.221802,141.868698 327.299866,154.765884 326.093964,168.086472 
	C325.917023,170.041031 326.877930,172.098618 327.435913,174.680069 
	C332.056305,170.803329 335.766113,167.690628 339.475922,164.577942 
	C339.859467,165.008667 340.243011,165.439407 340.626556,165.870148 
	C336.770721,169.357742 332.914917,172.845337 328.666443,176.688080 
	C330.154938,177.257126 332.430939,178.127228 335.561188,178.996552 
M262.486420,164.952957 
	C262.641907,161.480637 263.985229,163.586792 264.942261,164.466339 
	C268.947906,168.147720 272.880768,171.909531 276.939056,175.531158 
	C277.662415,176.176682 278.835358,176.434189 279.841736,176.572540 
	C280.124237,176.611374 280.914490,175.543564 280.855560,175.058167 
	C280.484863,172.003540 280.187805,168.905365 279.412842,165.940094 
	C274.604858,147.542816 259.979309,135.962738 239.552673,136.915604 
	C236.100052,137.076660 235.005127,138.020676 234.929886,141.509735 
	C234.513199,160.831451 245.642929,174.563843 263.527649,180.672867 
	C267.554504,182.048370 272.179413,181.673050 276.528992,182.103699 
	C276.583923,181.622116 276.638885,181.140533 276.693817,180.658951 
	C272.126678,175.595901 267.559509,170.532852 262.486420,164.952957 
M287.958252,183.567673 
	C288.218567,185.178238 288.389069,186.809540 288.754883,188.395752 
	C290.248718,194.872849 294.709625,199.222214 301.394623,199.875076 
	C308.115997,200.531479 313.043945,196.961670 316.617767,191.636307 
	C319.864532,186.798325 319.323303,181.047379 315.577637,176.144501 
	C310.879730,169.995209 304.116058,168.081909 299.211273,169.409698 
	C292.286957,171.284180 288.652557,175.690643 287.958252,183.567673 
z"/>
<path fill="#97CA42" opacity="1.000000" stroke="none" 
	d="
M333.052002,207.876923 
	C333.766541,207.918335 334.481110,207.959732 335.827271,208.130829 
	C341.680756,205.942062 347.439484,204.384445 352.017914,201.154037 
	C363.136322,193.309235 371.728149,182.965469 378.593475,171.189255 
	C379.503540,169.628174 381.088348,168.460464 382.360657,167.110565 
	C382.917084,167.296661 383.473480,167.482773 384.029907,167.668869 
	C383.801086,171.508438 384.692261,175.893967 383.136047,179.086502 
	C378.219727,189.172272 373.026611,199.243637 366.756958,208.520645 
	C357.633453,222.020355 343.962494,229.867645 329.224457,236.261597 
	C319.681885,240.401535 310.540771,245.512329 301.417542,250.546600 
	C298.537537,252.135834 296.298065,254.885849 292.703339,258.035095 
	C292.365631,254.631088 291.737701,252.669205 292.068512,250.885117 
	C293.547089,242.911026 294.472382,234.695587 297.149933,227.115692 
	C300.986847,216.253632 307.900146,207.458633 318.490875,201.862152 
	C327.261658,197.227402 335.733795,192.028976 344.377960,187.150696 
	C345.221619,186.674561 346.344727,186.693527 347.338104,186.482681 
	C347.631195,186.849701 347.924286,187.216721 348.217346,187.583740 
	C346.257416,190.120834 344.454529,192.801285 342.300323,195.161041 
	C339.157379,198.603867 335.714905,201.771576 332.506012,205.156906 
	C331.662018,206.047318 329.992767,207.562469 333.052002,207.876923 
z"/>
<path fill="#0E8A4E" opacity="1.000000" stroke="none" 
	d="
M232.249542,310.739197 
	C242.264282,308.527832 252.200363,305.810455 262.314484,304.238586 
	C273.873047,302.442169 281.227509,296.171539 286.044281,285.872437 
	C290.526337,276.289062 295.826263,267.151398 303.698730,259.826630 
	C305.005402,258.610870 306.456482,257.524384 307.948303,256.541199 
	C309.254425,255.680420 310.711639,255.048874 312.102081,254.316071 
	C312.756592,256.094177 313.808929,257.830536 314.000854,259.657257 
	C315.212708,271.194305 318.447174,282.107941 323.757904,292.395844 
	C326.770233,298.231384 332.272247,301.225159 338.127350,302.771851 
	C344.929016,304.568634 352.115204,304.856659 359.019684,306.335571 
	C363.727661,307.343964 368.238770,309.271515 372.428955,311.327026 
	C326.741089,311.887238 281.462189,311.918518 236.183350,311.879700 
	C234.871765,311.878571 233.560791,311.136017 232.249542,310.739197 
z"/>
<path fill="#0E8B4F" opacity="1.000000" stroke="none" 
	d="
M280.591766,238.743896 
	C265.194397,244.703674 250.582855,242.153198 237.207382,233.472412 
	C223.962936,224.876663 216.459961,212.188324 214.841583,196.118195 
	C216.450119,195.309845 218.518890,194.270203 220.953674,193.092621 
	C221.319672,192.954681 221.743057,192.758926 221.743057,192.758926 
	C221.743057,192.758926 222.049164,193.061020 222.049164,193.061020 
	C222.049164,193.061020 221.975037,193.100037 222.391052,193.043427 
	C233.801544,190.868958 244.639923,191.141144 255.237259,195.104599 
	C268.729340,200.849442 278.623383,210.054947 283.001678,224.386917 
	C283.729065,226.768036 283.658752,229.392822 283.476257,232.034302 
	C282.995422,232.163574 282.743256,231.946030 282.719727,231.658569 
	C282.157654,231.213272 281.619080,231.055450 281.040253,230.948822 
	C281.000000,231.000000 281.078156,230.896103 280.910461,230.648254 
	C280.181305,230.239319 279.619873,230.078247 279.032898,229.959351 
	C279.007355,230.001556 279.067474,229.921463 278.898499,229.668518 
	C278.158844,229.259155 277.588165,229.102737 276.911560,228.836151 
	C276.805664,228.725952 276.504639,228.672974 276.325684,228.439148 
	C275.769867,228.130707 275.392944,228.056076 274.906128,227.866974 
	C274.796234,227.752518 274.486755,227.682281 274.313812,227.445618 
	C273.765686,227.137436 273.390472,227.065903 272.887329,226.882462 
	C272.759369,226.770569 272.424164,226.713852 272.190369,226.435867 
	C268.474884,224.852646 264.993225,223.547409 261.511536,222.242172 
	C261.235687,222.827988 260.959839,223.413818 260.683990,223.999634 
	C263.786438,225.998245 266.888885,227.996841 270.160889,230.207642 
	C270.811188,230.658905 271.291870,230.897964 271.889099,231.383896 
	C272.337402,231.750656 272.669220,231.870544 273.160309,232.206467 
	C273.788727,232.671463 274.257812,232.920425 274.843018,233.420731 
	C275.294983,233.797379 275.630920,233.922668 276.120850,234.267548 
	C276.748169,234.728897 277.221466,234.970627 277.806671,235.459869 
	C278.245361,235.838120 278.572144,235.968857 279.065826,236.336792 
	C279.685760,237.297287 280.138763,238.020584 280.591766,238.743896 
z"/>
<path fill="#9BC84F" opacity="1.000000" stroke="none" 
	d="
M335.134064,178.996948 
	C332.430939,178.127228 330.154938,177.257126 328.666443,176.688080 
	C332.914917,172.845337 336.770721,169.357742 340.626556,165.870148 
	C340.243011,165.439407 339.859467,165.008667 339.475922,164.577942 
	C335.766113,167.690628 332.056305,170.803329 327.435913,174.680069 
	C326.877930,172.098618 325.917023,170.041031 326.093964,168.086472 
	C327.299866,154.765884 335.221802,141.868698 349.092804,136.897964 
	C354.611023,134.920486 359.929840,133.497635 365.791290,133.914230 
	C370.650879,134.259628 372.656311,136.286057 372.030548,141.075272 
	C370.721313,151.095398 367.923462,160.742554 360.457367,167.843887 
	C353.641022,174.327179 345.287018,178.467834 335.134064,178.996948 
M341.459045,162.202911 
	C341.553375,162.580322 341.647675,162.957733 341.742004,163.335144 
	C341.883545,162.942123 342.025055,162.549118 341.459045,162.202911 
z"/>
<path fill="#9AC74D" opacity="1.000000" stroke="none" 
	d="
M262.739380,165.211380 
	C267.559509,170.532852 272.126678,175.595901 276.693817,180.658951 
	C276.638885,181.140533 276.583923,181.622116 276.528992,182.103699 
	C272.179413,181.673050 267.554504,182.048370 263.527649,180.672867 
	C245.642929,174.563843 234.513199,160.831451 234.929886,141.509735 
	C235.005127,138.020676 236.100052,137.076660 239.552673,136.915604 
	C259.979309,135.962738 274.604858,147.542816 279.412842,165.940094 
	C280.187805,168.905365 280.484863,172.003540 280.855560,175.058167 
	C280.914490,175.543564 280.124237,176.611374 279.841736,176.572540 
	C278.835358,176.434189 277.662415,176.176682 276.939056,175.531158 
	C272.880768,171.909531 268.947906,168.147720 264.942261,164.466339 
	C263.985229,163.586792 262.641907,161.480637 262.739380,165.211380 
z"/>
<path fill="#A2C365" opacity="1.000000" stroke="none" 
	d="
M333.169312,207.561447 
	C329.992767,207.562469 331.662018,206.047318 332.506012,205.156906 
	C335.714905,201.771576 339.157379,198.603867 342.300323,195.161041 
	C344.454529,192.801285 346.257416,190.120834 348.217346,187.583740 
	C347.924286,187.216721 347.631195,186.849701 347.338104,186.482681 
	C346.344727,186.693527 345.221619,186.674561 344.377960,187.150696 
	C335.733795,192.028976 327.261658,197.227402 318.490875,201.862152 
	C307.900146,207.458633 300.986847,216.253632 297.149933,227.115692 
	C294.472382,234.695587 293.547089,242.911026 292.068512,250.885117 
	C291.737701,252.669205 292.365631,254.631088 292.703339,258.035095 
	C296.298065,254.885849 298.537537,252.135834 301.417542,250.546600 
	C310.540771,245.512329 319.681885,240.401535 329.224457,236.261597 
	C343.962494,229.867645 357.633453,222.020355 366.756958,208.520645 
	C373.026611,199.243637 378.219727,189.172272 383.136047,179.086502 
	C384.692261,175.893967 383.801086,171.508438 384.029907,167.668869 
	C383.473480,167.482773 382.917084,167.296661 382.360657,167.110565 
	C381.088348,168.460464 379.503540,169.628174 378.593475,171.189255 
	C371.728149,182.965469 363.136322,193.309235 352.017914,201.154037 
	C347.439484,204.384445 341.680756,205.942062 336.183594,208.094376 
	C354.550110,199.613815 367.566742,185.450104 377.434662,168.007248 
	C379.189545,164.905228 380.961426,161.812241 382.782043,158.748734 
	C382.995026,158.390335 383.570007,158.247070 384.754089,157.540268 
	C385.549896,159.798904 386.646332,161.768692 386.908142,163.843796 
	C388.344421,175.227631 385.314209,185.751953 379.185272,195.131485 
	C373.699890,203.526215 367.727295,211.715271 361.087219,219.213654 
	C353.166870,228.157806 342.359497,233.110214 331.631897,238.062561 
	C321.503448,242.738297 311.397247,247.591980 301.831451,253.290848 
	C298.164368,255.475540 296.020538,260.217133 293.182648,263.793610 
	C292.587097,263.416870 291.991577,263.040100 291.396057,262.663361 
	C290.947906,261.757172 290.170868,260.876068 290.099518,259.941101 
	C288.054596,233.157028 297.152924,206.646683 326.228027,194.829758 
	C333.658783,191.809662 340.187164,186.574005 347.143341,182.378128 
	C348.747009,181.410797 350.404877,180.533371 352.813965,179.177826 
	C353.163208,185.233932 350.454041,189.311554 347.628510,192.741135 
	C343.322784,197.967331 338.112701,202.448456 333.169312,207.561447 
z"/>
<path fill="#22A852" opacity="1.000000" stroke="none" 
	d="
M287.962921,183.136520 
	C288.652557,175.690643 292.286957,171.284180 299.211273,169.409698 
	C304.116058,168.081909 310.879730,169.995209 315.577637,176.144501 
	C319.323303,181.047379 319.864532,186.798325 316.617767,191.636307 
	C313.043945,196.961670 308.115997,200.531479 301.394623,199.875076 
	C294.709625,199.222214 290.248718,194.872849 288.754883,188.395752 
	C288.389069,186.809540 288.218567,185.178238 287.962921,183.136520 
z"/>
<path fill="#078D4B" opacity="1.000000" stroke="none" 
	d="
M304.210358,139.989212 
	C304.145355,138.635635 304.080322,137.282059 303.968506,135.208572 
	C303.222046,134.252075 302.522400,134.015472 301.822754,133.778885 
	C301.560547,135.398102 301.307983,137.018967 301.034210,138.636230 
	C300.360382,142.617172 299.676727,146.596466 298.841125,151.489212 
	C291.945190,144.875992 290.402191,129.813751 296.415039,119.999260 
	C300.783173,112.869339 305.362274,112.432144 309.678650,119.686180 
	C314.942780,128.533051 314.856995,137.997589 311.445557,147.484634 
	C310.980591,148.777710 309.570129,149.730820 308.388245,151.080200 
	C306.789276,146.835480 305.499817,143.412338 304.210358,139.989212 
z"/>
<path fill="#228254" opacity="1.000000" stroke="none" 
	d="
M304.143372,140.435135 
	C305.499817,143.412338 306.789276,146.835480 308.388245,151.080200 
	C309.570129,149.730820 310.980591,148.777710 311.445557,147.484634 
	C314.856995,137.997589 314.942780,128.533051 309.678650,119.686180 
	C305.362274,112.432144 300.783173,112.869339 296.415039,119.999260 
	C290.402191,129.813751 291.945190,144.875992 298.841125,151.489212 
	C299.676727,146.596466 300.360382,142.617172 301.034210,138.636230 
	C301.307983,137.018967 301.560547,135.398102 301.822754,133.778885 
	C302.522400,134.015472 303.222046,134.252075 303.932831,134.803635 
	C303.278778,141.095810 302.595825,147.071136 301.959473,153.051407 
	C301.775024,154.784729 301.724152,156.532257 301.568604,158.947830 
	C294.705872,155.019226 292.568085,148.991684 291.020142,142.889877 
	C287.912262,130.639267 292.175659,120.305939 300.400452,111.360970 
	C301.085724,110.615692 303.524017,110.426735 304.373444,111.044350 
	C320.165588,122.527191 320.164276,147.468048 305.320221,158.619156 
	C304.890808,152.495529 304.483582,146.688293 304.143372,140.435135 
z"/>
<path fill="#BBEDD7" opacity="1.000000" stroke="none" 
	d="
M231.832901,310.905548 
	C233.560791,311.136017 234.871765,311.878571 236.183350,311.879700 
	C281.462189,311.918518 326.741089,311.887238 372.374115,311.735260 
	C373.773071,311.540192 374.817841,311.475861 375.862640,311.411499 
	C375.915161,311.735016 375.967682,312.058563 376.020203,312.382080 
	C375.085785,312.590851 374.151489,312.981689 373.216919,312.982239 
	C326.633911,313.009735 280.050873,313.010620 233.467896,312.960144 
	C232.339249,312.958923 231.211258,312.344482 230.082962,312.016052 
	C230.527390,311.701355 230.971832,311.386627 231.832901,310.905548 
z"/>
<path fill="#EBFDF6" opacity="1.000000" stroke="none" 
	d="
M274.486755,227.682281 
	C274.486755,227.682281 274.796234,227.752518 275.113525,228.060364 
	C275.788757,228.469788 276.146698,228.571381 276.504639,228.672974 
	C276.504639,228.672974 276.805664,228.725952 277.112396,229.056305 
	C277.968567,229.564926 278.518036,229.743195 279.067474,229.921463 
	C279.067474,229.921463 279.007355,230.001556 279.223999,230.186096 
	C279.986481,230.545776 280.532318,230.720932 281.078156,230.896103 
	C281.078156,230.896103 281.000000,231.000000 281.184082,231.162964 
	C281.826538,231.532623 282.284882,231.739319 282.743256,231.946030 
	C282.743256,231.946030 282.995422,232.163574 283.105835,232.038406 
	C282.649567,234.247467 282.082916,236.581696 281.054016,238.829926 
	C280.138763,238.020584 279.685760,237.297287 278.923676,236.118790 
	C278.307983,235.513168 278.001343,235.362747 277.694733,235.212341 
	C277.221466,234.970627 276.748169,234.728897 275.966797,234.053970 
	C275.348114,233.470306 275.037506,233.319839 274.726929,233.169373 
	C274.257812,232.920425 273.788727,232.671463 273.009277,231.994293 
	C272.390167,231.423065 272.081360,231.280045 271.772583,231.137039 
	C271.291870,230.897964 270.811188,230.658905 270.190186,229.832474 
	C270.841309,228.401367 271.632751,227.557602 272.424164,226.713852 
	C272.424164,226.713852 272.759369,226.770569 273.091858,227.075043 
	C273.778503,227.480423 274.132629,227.581360 274.486755,227.682281 
z"/>
<path fill="#BBEDD7" opacity="1.000000" stroke="none" 
	d="
M255.080048,194.744354 
	C244.639923,191.141144 233.801544,190.868958 222.370071,193.007187 
	C233.153778,188.029327 244.126633,189.059113 255.080048,194.744354 
z"/>
<path fill="#BBEDD7" opacity="1.000000" stroke="none" 
	d="
M221.869629,193.138184 
	C222.049164,193.061020 221.743057,192.758926 221.743057,192.758926 
	C221.743057,192.758926 221.319672,192.954681 221.312393,193.118713 
	C221.305115,193.282745 221.690094,193.215363 221.869629,193.138184 
z"/>
<path fill="#BBEDD7" opacity="1.000000" stroke="none" 
	d="
M272.190369,226.435867 
	C271.632751,227.557602 270.841309,228.401367 270.020630,229.620270 
	C266.888885,227.996841 263.786438,225.998245 260.683990,223.999634 
	C260.959839,223.413818 261.235687,222.827988 261.511536,222.242172 
	C264.993225,223.547409 268.474884,224.852646 272.190369,226.435867 
z"/>
<path fill="#BBEDD7" opacity="1.000000" stroke="none" 
	d="
M278.898499,229.668518 
	C278.518036,229.743195 277.968567,229.564926 277.218292,229.166504 
	C277.588165,229.102737 278.158844,229.259155 278.898499,229.668518 
z"/>
<path fill="#BBEDD7" opacity="1.000000" stroke="none" 
	d="
M280.910461,230.648254 
	C280.532318,230.720932 279.986481,230.545776 279.249542,230.143890 
	C279.619873,230.078247 280.181305,230.239319 280.910461,230.648254 
z"/>
<path fill="#BBEDD7" opacity="1.000000" stroke="none" 
	d="
M282.719727,231.658569 
	C282.284882,231.739319 281.826538,231.532623 281.224335,231.111786 
	C281.619080,231.055450 282.157654,231.213272 282.719727,231.658569 
z"/>
<path fill="#BBEDD7" opacity="1.000000" stroke="none" 
	d="
M274.313812,227.445618 
	C274.132629,227.581360 273.778503,227.480423 273.219849,227.186920 
	C273.390472,227.065903 273.765686,227.137436 274.313812,227.445618 
z"/>
<path fill="#BBEDD7" opacity="1.000000" stroke="none" 
	d="
M276.325684,228.439148 
	C276.146698,228.571381 275.788757,228.469788 275.223450,228.174820 
	C275.392944,228.056076 275.769867,228.130707 276.325684,228.439148 
z"/>
<path fill="#BBEDD7" opacity="1.000000" stroke="none" 
	d="
M271.889099,231.383896 
	C272.081360,231.280045 272.390167,231.423065 272.849976,231.778259 
	C272.669220,231.870544 272.337402,231.750656 271.889099,231.383896 
z"/>
<path fill="#BBEDD7" opacity="1.000000" stroke="none" 
	d="
M274.843018,233.420731 
	C275.037506,233.319839 275.348114,233.470306 275.812744,233.834351 
	C275.630920,233.922668 275.294983,233.797379 274.843018,233.420731 
z"/>
<path fill="#BBEDD7" opacity="1.000000" stroke="none" 
	d="
M277.806671,235.459854 
	C278.001343,235.362747 278.307983,235.513168 278.756744,235.881592 
	C278.572144,235.968857 278.245361,235.838120 277.806671,235.459854 
z"/>
<path fill="#000000" opacity="1.000000" stroke="none" 
	d="
M341.812805,162.179504 
	C342.025055,162.549118 341.883545,162.942123 341.742004,163.335144 
	C341.647675,162.957733 341.553375,162.580322 341.812805,162.179504 
z"/>
</svg>